# xmcd
#
# Track frame offsets:
#   150
#   22005
#   40696
#   63135
#   82197
#   102097
#   123850
#   142379
#   157340
#   174154
#   194732
#   214716
#   233143
#   253323
#
# Disc length: 3574 seconds
#
# Revision: 0
# Processed by: cddbd v1.5.2PL0 Copyright (c) Steve Scherf et al.
# Submitted via: uFREEDB 1.6.2
#
DISCID=cc0df40e
DTITLE=3t7 - ee456
DYEAR=1900
DGENRE=Children's Music
TTITLE0=z66z1
TTITLE1=z77z2
TTITLE2=z88z3
TTITLE3=z4
TTITLE4=z5
TTITLE5=z6
TTITLE6=z7
TTITLE7=z8
TTITLE8=z9
TTITLE9=z11
TTITLE10=z22
TTITLE11=z33
TTITLE12=z44
TTITLE13=z55
EXTD=
EXTT0=
EXTT1=
EXTT2=
EXTT3=
EXTT4=
EXTT5=
EXTT6=
EXTT7=
EXTT8=
EXTT9=
EXTT10=
EXTT11=
EXTT12=
EXTT13=
PLAYORDER=
